<?xml version="1.0" encoding="UTF-8"?>
<svg width="13px" height="13px" viewBox="0 0 13 13" version="1.1" xmlns="http://www.w3.org/2000/svg" xmlns:xlink="http://www.w3.org/1999/xlink">
    <!-- Generator: Sketch 42 (36781) - http://www.bohemiancoding.com/sketch -->
    <title></title>
    <desc>Created with Sketch.</desc>
    <defs></defs>
    <g id="Desktop" stroke="none" stroke-width="1" fill="none" fill-rule="evenodd">
        <g id="D01---step-1---03" transform="translate(-697.000000, -454.000000)" stroke="#FC4F60" stroke-width="2" fill="#FC4F60">
            <g id="Group-2" transform="translate(187.000000, 423.000000)">
                <g id="text-field---valid" transform="translate(215.000000, 0.000000)">
                    <path d="M306.943371,32.0536969 C306.843137,31.982101 306.750064,31.982101 306.664149,32.0536969 L301.487795,37.2300509 L296.311441,32.0536969 C296.211206,31.982101 296.125293,31.982101 296.053697,32.0536969 C295.982101,32.1396119 295.982101,32.2255256 296.053697,32.3114407 L301.230051,37.4877947 L296.053697,42.6641488 C295.982101,42.7643829 295.982101,42.8574562 296.053697,42.9433712 C296.096654,42.9720095 296.139611,42.9863285 296.182569,42.9863285 C296.225526,42.9863285 296.268483,42.9720095 296.311441,42.9433712 L301.487795,37.7455385 L306.664149,42.9433712 C306.721425,42.9720095 306.764382,42.9863285 306.793021,42.9863285 C306.850297,42.9863285 306.900414,42.9720095 306.943371,42.9433712 C307.000648,42.843137 307.000648,42.7500638 306.943371,42.6641488 L301.745538,37.4877947 L306.943371,32.3114407 C307.000648,32.2112065 307.000648,32.1252927 306.943371,32.0536969 Z" id=""></path>
                </g>
            </g>
        </g>
    </g>
</svg>
